<svg t="1706945909365" class="icon" viewBox="0 0 1024 1024" version="1.1" xmlns="http://www.w3.org/2000/svg" p-id="2116" width="200" height="200"><path d="M894.714132 734.068078H763.580611c36.453721-41.247635 66.715303-99.074222 66.715302-189.459476 0-63.319614-12.883644-114.454696-29.162976-154.004486 18.476543-29.462596 29.162977-64.318346 29.162976-101.670926 0-63.119867-30.561202-119.148737-77.601482-154.104359 7.190871-42.046621 13.682629-91.783478 13.682629-133.530479-35.954355 0-82.095777 59.025066-107.962937 96.877011-6.491759-0.699112-13.183263-0.998732-19.874769-0.998732-49.137618 0-93.880815 18.476543-127.837706 48.837999-33.956891-30.361455-78.700088-48.837999-127.837706-48.837999-6.691505 0-13.38301 0.29962-19.874768 0.998732-25.867161-37.851946-72.008583-96.877012-107.962938-96.877011 0 41.747001 6.591632 91.483858 13.68263 133.530479-47.140154 34.955623-77.601482 90.984492-77.601483 154.104359 0 37.35258 10.686433 72.208329 29.162977 101.670926-16.279333 39.54979-29.162977 90.684873-29.162977 154.004486 0 90.385253 30.261582 148.111967 66.715303 189.459476H126.689164c-35.155369 0-63.918853 28.763484-63.918853 63.918853s28.763484 63.918853 63.918853 63.918853h255.975032c0 0.798986 0.199746 1.498098 0.199746 2.297083 0 79.898566-95.87828 82.894763-95.878279 159.797133 0 0 79.898566-31.959427 127.837706-31.959427 30.960694 0 33.956891 31.959427 95.878279 31.959427s64.917585-31.959427 95.87828-31.959427c47.93914 0 127.837706 31.959427 127.837706 31.959427 0-76.90237-95.87828-79.898566-95.87828-159.797133 0-0.798986 0.099873-1.498098 0.199747-2.297083h255.975031c35.155369 0 63.918853-28.763484 63.918853-63.918853s-28.763484-63.918853-63.918853-63.918853z m-415.97191 66.215936c0 17.677558-14.281869 31.959427-31.959427 31.959427s-31.959427-14.381742-31.959426-31.959427c0 17.677558-14.381742 31.959427-31.959427 31.959427-17.677558 0-31.959427-14.381742-31.959426-31.959427v-63.918853c0-17.677558 14.281869-31.959427 31.959426-31.959426s31.959427 14.281869 31.959427 31.959426c0-17.677558 14.281869-31.959427 31.959426-31.959426s31.959427 14.281869 31.959427 31.959426v63.918853z m191.756559 0c0 17.677558-14.281869 31.959427-31.959427 31.959427s-31.959427-14.381742-31.959426-31.959427c0 17.677558-14.381742 31.959427-31.959427 31.959427-17.677558 0-31.959427-14.381742-31.959426-31.959427v-63.918853c0-17.677558 14.281869-31.959427 31.959426-31.959426s31.959427 14.281869 31.959427 31.959426c0-17.677558 14.281869-31.959427 31.959426-31.959426s31.959427 14.281869 31.959427 31.959426v63.918853z m-31.959427-383.513118c-30.860821 0-59.224812-10.986053-81.296791-29.162976l-46.540915 93.081829-46.540915-93.081829c-22.071979 18.176924-50.43597 29.162977-81.296791 29.162976-70.610358 0-127.837706-57.227348-127.837706-127.837706s57.227348-127.837706 127.837706-127.837706 127.837706 57.227348 127.837706 127.837706c0-70.610358 57.227348-127.837706 127.837706-127.837706s127.837706 57.227348 127.837706 127.837706-57.227348 127.837706-127.837706 127.837706z" fill="#1296db" p-id="2117"></path><path d="M384.162294 223.715986c-35.255242 0-63.918853 28.563737-63.918853 63.918853s28.563737 63.918853 63.918853 63.918853c35.255242 0 63.918853-28.563737 63.918853-63.918853s-28.663611-63.918853-63.918853-63.918853z m255.675412 0c-35.255242 0-63.918853 28.563737-63.918853 63.918853s28.563737 63.918853 63.918853 63.918853c35.255242 0 63.918853-28.563737 63.918853-63.918853s-28.663611-63.918853-63.918853-63.918853z" fill="#1296db" p-id="2118"></path></svg>